<mxfile host="drawio-plugin" modified="2024-01-20T18:12:02.200Z" agent="5.0 (Macintosh; Intel Mac OS X 10_15_7) AppleWebKit/537.36 (KHTML, like Gecko) Chrome/111.0.0.0 Safari/537.36" version="20.5.3" etag="4ghyVRpjt_Y_gPnSc_Pu" type="embed"><diagram id="CBEdVw45p-Hl2GTH4hc8" name="Page-1"><mxGraphModel dx="1120" dy="767" grid="1" gridSize="10" guides="1" tooltips="1" connect="1" arrows="1" fold="1" page="1" pageScale="1" pageWidth="850" pageHeight="1100" math="0" shadow="0"><root><mxCell id="0"/><mxCell id="1" parent="0"/><mxCell id="2" value="Полное имя" style="swimlane;fontStyle=0;childLayout=stackLayout;horizontal=1;startSize=30;horizontalStack=0;resizeParent=1;resizeParentMax=0;resizeLast=0;collapsible=1;marginBottom=0;whiteSpace=wrap;html=1;" vertex="1" parent="1"><mxGeometry x="150" y="70" width="140" height="120" as="geometry"/></mxCell><mxCell id="3" value="Ольга Егорова" style="text;strokeColor=none;fillColor=none;align=left;verticalAlign=middle;spacingLeft=4;spacingRight=4;overflow=hidden;points=[[0,0.5],[1,0.5]];portConstraint=eastwest;rotatable=0;whiteSpace=wrap;html=1;" vertex="1" parent="2"><mxGeometry y="30" width="140" height="30" as="geometry"/></mxCell><mxCell id="4" value="Иванов Сергей" style="text;strokeColor=none;fillColor=none;align=left;verticalAlign=middle;spacingLeft=4;spacingRight=4;overflow=hidden;points=[[0,0.5],[1,0.5]];portConstraint=eastwest;rotatable=0;whiteSpace=wrap;html=1;" vertex="1" parent="2"><mxGeometry y="60" width="140" height="30" as="geometry"/></mxCell><mxCell id="5" value="Иванов Сергей" style="text;strokeColor=none;fillColor=none;align=left;verticalAlign=middle;spacingLeft=4;spacingRight=4;overflow=hidden;points=[[0,0.5],[1,0.5]];portConstraint=eastwest;rotatable=0;whiteSpace=wrap;html=1;" vertex="1" parent="2"><mxGeometry y="90" width="140" height="30" as="geometry"/></mxCell><mxCell id="6" value="ID" style="swimlane;fontStyle=0;childLayout=stackLayout;horizontal=1;startSize=30;horizontalStack=0;resizeParent=1;resizeParentMax=0;resizeLast=0;collapsible=1;marginBottom=0;whiteSpace=wrap;html=1;" vertex="1" parent="1"><mxGeometry x="10" y="70" width="140" height="120" as="geometry"/></mxCell><mxCell id="7" value="1" style="text;strokeColor=none;fillColor=none;align=left;verticalAlign=middle;spacingLeft=4;spacingRight=4;overflow=hidden;points=[[0,0.5],[1,0.5]];portConstraint=eastwest;rotatable=0;whiteSpace=wrap;html=1;" vertex="1" parent="6"><mxGeometry y="30" width="140" height="30" as="geometry"/></mxCell><mxCell id="8" value="2" style="text;strokeColor=none;fillColor=none;align=left;verticalAlign=middle;spacingLeft=4;spacingRight=4;overflow=hidden;points=[[0,0.5],[1,0.5]];portConstraint=eastwest;rotatable=0;whiteSpace=wrap;html=1;" vertex="1" parent="6"><mxGeometry y="60" width="140" height="30" as="geometry"/></mxCell><mxCell id="9" value="3" style="text;strokeColor=none;fillColor=none;align=left;verticalAlign=middle;spacingLeft=4;spacingRight=4;overflow=hidden;points=[[0,0.5],[1,0.5]];portConstraint=eastwest;rotatable=0;whiteSpace=wrap;html=1;" vertex="1" parent="6"><mxGeometry y="90" width="140" height="30" as="geometry"/></mxCell><mxCell id="10" value="Адрес" style="swimlane;fontStyle=0;childLayout=stackLayout;horizontal=1;startSize=30;horizontalStack=0;resizeParent=1;resizeParentMax=0;resizeLast=0;collapsible=1;marginBottom=0;whiteSpace=wrap;html=1;" vertex="1" parent="1"><mxGeometry x="430" y="70" width="140" height="120" as="geometry"/></mxCell><mxCell id="11" value="1-ый Казанский переулок д14" style="text;strokeColor=none;fillColor=none;align=left;verticalAlign=middle;spacingLeft=4;spacingRight=4;overflow=hidden;points=[[0,0.5],[1,0.5]];portConstraint=eastwest;rotatable=0;whiteSpace=wrap;html=1;" vertex="1" parent="10"><mxGeometry y="30" width="140" height="30" as="geometry"/></mxCell><mxCell id="12" value="ул.Центральная, д.40, кв.74" style="text;strokeColor=none;fillColor=none;align=left;verticalAlign=middle;spacingLeft=4;spacingRight=4;overflow=hidden;points=[[0,0.5],[1,0.5]];portConstraint=eastwest;rotatable=0;whiteSpace=wrap;html=1;" vertex="1" parent="10"><mxGeometry y="60" width="140" height="30" as="geometry"/></mxCell><mxCell id="13" value="ул.Ленина, д.7, кв.130" style="text;strokeColor=none;fillColor=none;align=left;verticalAlign=middle;spacingLeft=4;spacingRight=4;overflow=hidden;points=[[0,0.5],[1,0.5]];portConstraint=eastwest;rotatable=0;whiteSpace=wrap;html=1;" vertex="1" parent="10"><mxGeometry y="90" width="140" height="30" as="geometry"/></mxCell><mxCell id="14" value="пол" style="swimlane;fontStyle=0;childLayout=stackLayout;horizontal=1;startSize=30;horizontalStack=0;resizeParent=1;resizeParentMax=0;resizeLast=0;collapsible=1;marginBottom=0;whiteSpace=wrap;html=1;" vertex="1" parent="1"><mxGeometry x="290" y="70" width="140" height="120" as="geometry"/></mxCell><mxCell id="15" value="женский" style="text;strokeColor=none;fillColor=none;align=left;verticalAlign=middle;spacingLeft=4;spacingRight=4;overflow=hidden;points=[[0,0.5],[1,0.5]];portConstraint=eastwest;rotatable=0;whiteSpace=wrap;html=1;" vertex="1" parent="14"><mxGeometry y="30" width="140" height="30" as="geometry"/></mxCell><mxCell id="16" value="мужской" style="text;strokeColor=none;fillColor=none;align=left;verticalAlign=middle;spacingLeft=4;spacingRight=4;overflow=hidden;points=[[0,0.5],[1,0.5]];portConstraint=eastwest;rotatable=0;whiteSpace=wrap;html=1;" vertex="1" parent="14"><mxGeometry y="60" width="140" height="30" as="geometry"/></mxCell><mxCell id="17" value="мужской" style="text;strokeColor=none;fillColor=none;align=left;verticalAlign=middle;spacingLeft=4;spacingRight=4;overflow=hidden;points=[[0,0.5],[1,0.5]];portConstraint=eastwest;rotatable=0;whiteSpace=wrap;html=1;" vertex="1" parent="14"><mxGeometry y="90" width="140" height="30" as="geometry"/></mxCell><mxCell id="26" value="ID" style="swimlane;fontStyle=0;childLayout=stackLayout;horizontal=1;startSize=30;horizontalStack=0;resizeParent=1;resizeParentMax=0;resizeLast=0;collapsible=1;marginBottom=0;whiteSpace=wrap;html=1;" vertex="1" parent="1"><mxGeometry x="10" y="360" width="140" height="120" as="geometry"><mxRectangle x="10" y="260" width="60" height="30" as="alternateBounds"/></mxGeometry></mxCell><mxCell id="27" value="1" style="text;strokeColor=none;fillColor=none;align=left;verticalAlign=middle;spacingLeft=4;spacingRight=4;overflow=hidden;points=[[0,0.5],[1,0.5]];portConstraint=eastwest;rotatable=0;whiteSpace=wrap;html=1;" vertex="1" parent="26"><mxGeometry y="30" width="140" height="30" as="geometry"/></mxCell><mxCell id="28" value="2" style="text;strokeColor=none;fillColor=none;align=left;verticalAlign=middle;spacingLeft=4;spacingRight=4;overflow=hidden;points=[[0,0.5],[1,0.5]];portConstraint=eastwest;rotatable=0;whiteSpace=wrap;html=1;" vertex="1" parent="26"><mxGeometry y="60" width="140" height="30" as="geometry"/></mxCell><mxCell id="29" value="3" style="text;strokeColor=none;fillColor=none;align=left;verticalAlign=middle;spacingLeft=4;spacingRight=4;overflow=hidden;points=[[0,0.5],[1,0.5]];portConstraint=eastwest;rotatable=0;whiteSpace=wrap;html=1;" vertex="1" parent="26"><mxGeometry y="90" width="140" height="30" as="geometry"/></mxCell><mxCell id="70" style="edgeStyle=orthogonalEdgeStyle;rounded=0;orthogonalLoop=1;jettySize=auto;html=1;exitX=0.5;exitY=0;exitDx=0;exitDy=0;entryX=0.5;entryY=1;entryDx=0;entryDy=0;" edge="1" parent="1" source="26" target="55"><mxGeometry relative="1" as="geometry"/></mxCell><mxCell id="30" value="Фильм" style="swimlane;fontStyle=0;childLayout=stackLayout;horizontal=1;startSize=30;horizontalStack=0;resizeParent=1;resizeParentMax=0;resizeLast=0;collapsible=1;marginBottom=0;whiteSpace=wrap;html=1;" vertex="1" parent="1"><mxGeometry x="150" y="360" width="140" height="120" as="geometry"/></mxCell><mxCell id="31" value="Пираты Карибского моря" style="text;strokeColor=none;fillColor=none;align=left;verticalAlign=middle;spacingLeft=4;spacingRight=4;overflow=hidden;points=[[0,0.5],[1,0.5]];portConstraint=eastwest;rotatable=0;whiteSpace=wrap;html=1;" vertex="1" parent="30"><mxGeometry y="30" width="140" height="30" as="geometry"/></mxCell><mxCell id="32" value="Матрица: революция" style="text;strokeColor=none;fillColor=none;align=left;verticalAlign=middle;spacingLeft=4;spacingRight=4;overflow=hidden;points=[[0,0.5],[1,0.5]];portConstraint=eastwest;rotatable=0;whiteSpace=wrap;html=1;" vertex="1" parent="30"><mxGeometry y="60" width="140" height="30" as="geometry"/></mxCell><mxCell id="33" value="Человек который изменил все" style="text;strokeColor=none;fillColor=none;align=left;verticalAlign=middle;spacingLeft=4;spacingRight=4;overflow=hidden;points=[[0,0.5],[1,0.5]];portConstraint=eastwest;rotatable=0;whiteSpace=wrap;html=1;" vertex="1" parent="30"><mxGeometry y="90" width="140" height="30" as="geometry"/></mxCell><mxCell id="38" value="film_id" style="swimlane;fontStyle=0;childLayout=stackLayout;horizontal=1;startSize=30;horizontalStack=0;resizeParent=1;resizeParentMax=0;resizeLast=0;collapsible=1;marginBottom=0;whiteSpace=wrap;html=1;" vertex="1" parent="1"><mxGeometry x="570" y="70" width="140" height="120" as="geometry"/></mxCell><mxCell id="39" value="1" style="text;strokeColor=none;fillColor=none;align=left;verticalAlign=middle;spacingLeft=4;spacingRight=4;overflow=hidden;points=[[0,0.5],[1,0.5]];portConstraint=eastwest;rotatable=0;whiteSpace=wrap;html=1;" vertex="1" parent="38"><mxGeometry y="30" width="140" height="30" as="geometry"/></mxCell><mxCell id="40" value="3" style="text;strokeColor=none;fillColor=none;align=left;verticalAlign=middle;spacingLeft=4;spacingRight=4;overflow=hidden;points=[[0,0.5],[1,0.5]];portConstraint=eastwest;rotatable=0;whiteSpace=wrap;html=1;" vertex="1" parent="38"><mxGeometry y="60" width="140" height="30" as="geometry"/></mxCell><mxCell id="41" value="2" style="text;strokeColor=none;fillColor=none;align=left;verticalAlign=middle;spacingLeft=4;spacingRight=4;overflow=hidden;points=[[0,0.5],[1,0.5]];portConstraint=eastwest;rotatable=0;whiteSpace=wrap;html=1;" vertex="1" parent="38"><mxGeometry y="90" width="140" height="30" as="geometry"/></mxCell><mxCell id="42" value="&amp;nbsp;4" style="rounded=0;whiteSpace=wrap;html=1;align=left;" vertex="1" parent="1"><mxGeometry x="10" y="190" width="140" height="30" as="geometry"/></mxCell><mxCell id="43" value="" style="rounded=0;whiteSpace=wrap;html=1;align=left;" vertex="1" parent="1"><mxGeometry x="10" y="220" width="140" height="30" as="geometry"/></mxCell><mxCell id="46" value="" style="rounded=0;whiteSpace=wrap;html=1;align=left;" vertex="1" parent="1"><mxGeometry x="150" y="220" width="140" height="30" as="geometry"/></mxCell><mxCell id="48" value="" style="rounded=0;whiteSpace=wrap;html=1;align=left;" vertex="1" parent="1"><mxGeometry x="290" y="190" width="140" height="30" as="geometry"/></mxCell><mxCell id="49" value="" style="rounded=0;whiteSpace=wrap;html=1;align=left;" vertex="1" parent="1"><mxGeometry x="290" y="220" width="140" height="30" as="geometry"/></mxCell><mxCell id="51" value="&lt;span style=&quot;color: rgba(0, 0, 0, 0); font-family: monospace; font-size: 0px;&quot;&gt;%3CmxGraphModel%3E%3Croot%3E%3CmxCell%20id%3D%220%22%2F%3E%3CmxCell%20id%3D%221%22%20parent%3D%220%22%2F%3E%3CmxCell%20id%3D%222%22%20value%3D%221-%D1%8B%D0%B9%20%D0%9A%D0%B0%D0%B7%D0%B0%D0%BD%D1%81%D0%BA%D0%B8%D0%B9%20%D0%BF%D0%B5%D1%80%D0%B5%D1%83%D0%BB%D0%BE%D0%BA%20%D0%B414%22%20style%3D%22text%3BstrokeColor%3Dnone%3BfillColor%3Dnone%3Balign%3Dleft%3BverticalAlign%3Dmiddle%3BspacingLeft%3D4%3BspacingRight%3D4%3Boverflow%3Dhidden%3Bpoints%3D%5B%5B0%2C0.5%5D%2C%5B1%2C0.5%5D%5D%3BportConstraint%3Deastwest%3Brotatable%3D0%3BwhiteSpace%3Dwrap%3Bhtml%3D1%3B%22%20vertex%3D%221%22%20parent%3D%221%22%3E%3CmxGeometry%20x%3D%22430%22%20y%3D%22100%22%20width%3D%22140%22%20height%3D%2230%22%20as%3D%22geometry%22%2F%3E%3C%2FmxCell%3E%3C%2Froot%3E%3C%2FmxGraphModel%3E&lt;/span&gt;" style="rounded=0;whiteSpace=wrap;html=1;align=left;" vertex="1" parent="1"><mxGeometry x="430" y="190" width="140" height="30" as="geometry"/></mxCell><mxCell id="52" value="" style="rounded=0;whiteSpace=wrap;html=1;align=left;" vertex="1" parent="1"><mxGeometry x="430" y="220" width="140" height="30" as="geometry"/></mxCell><mxCell id="54" value="&amp;nbsp;2" style="rounded=0;whiteSpace=wrap;html=1;align=left;" vertex="1" parent="1"><mxGeometry x="570" y="190" width="140" height="30" as="geometry"/></mxCell><mxCell id="55" value="&amp;nbsp;4" style="rounded=0;whiteSpace=wrap;html=1;align=left;" vertex="1" parent="1"><mxGeometry x="570" y="220" width="140" height="30" as="geometry"/></mxCell><mxCell id="57" value="&amp;nbsp;4" style="rounded=0;whiteSpace=wrap;html=1;align=left;" vertex="1" parent="1"><mxGeometry x="10" y="480" width="140" height="30" as="geometry"/></mxCell><mxCell id="58" value="&amp;nbsp;Интерстеллар" style="rounded=0;whiteSpace=wrap;html=1;align=left;" vertex="1" parent="1"><mxGeometry x="150" y="480" width="140" height="30" as="geometry"/></mxCell><mxCell id="59" value="Ольга Егорова" style="text;strokeColor=none;fillColor=none;align=left;verticalAlign=middle;spacingLeft=4;spacingRight=4;overflow=hidden;points=[[0,0.5],[1,0.5]];portConstraint=eastwest;rotatable=0;whiteSpace=wrap;html=1;" vertex="1" parent="1"><mxGeometry x="150" y="190" width="140" height="30" as="geometry"/></mxCell><mxCell id="60" value="женский" style="text;strokeColor=none;fillColor=none;align=left;verticalAlign=middle;spacingLeft=4;spacingRight=4;overflow=hidden;points=[[0,0.5],[1,0.5]];portConstraint=eastwest;rotatable=0;whiteSpace=wrap;html=1;" vertex="1" parent="1"><mxGeometry x="290" y="190" width="140" height="30" as="geometry"/></mxCell><mxCell id="61" value="1-ый Казанский переулок д14" style="text;strokeColor=none;fillColor=none;align=left;verticalAlign=middle;spacingLeft=4;spacingRight=4;overflow=hidden;points=[[0,0.5],[1,0.5]];portConstraint=eastwest;rotatable=0;whiteSpace=wrap;html=1;" vertex="1" parent="1"><mxGeometry x="430" y="190" width="140" height="30" as="geometry"/></mxCell><mxCell id="62" value="5" style="text;strokeColor=none;fillColor=none;align=left;verticalAlign=middle;spacingLeft=4;spacingRight=4;overflow=hidden;points=[[0,0.5],[1,0.5]];portConstraint=eastwest;rotatable=0;whiteSpace=wrap;html=1;" vertex="1" parent="1"><mxGeometry x="10" y="220" width="140" height="30" as="geometry"/></mxCell><mxCell id="63" value="Иванов Сергей" style="text;strokeColor=none;fillColor=none;align=left;verticalAlign=middle;spacingLeft=4;spacingRight=4;overflow=hidden;points=[[0,0.5],[1,0.5]];portConstraint=eastwest;rotatable=0;whiteSpace=wrap;html=1;" vertex="1" parent="1"><mxGeometry x="150" y="220" width="140" height="30" as="geometry"/></mxCell><mxCell id="64" value="мужской" style="text;strokeColor=none;fillColor=none;align=left;verticalAlign=middle;spacingLeft=4;spacingRight=4;overflow=hidden;points=[[0,0.5],[1,0.5]];portConstraint=eastwest;rotatable=0;whiteSpace=wrap;html=1;" vertex="1" parent="1"><mxGeometry x="290" y="220" width="140" height="30" as="geometry"/></mxCell><mxCell id="65" value="ул.Центральная, д.40, кв.74" style="text;strokeColor=none;fillColor=none;align=left;verticalAlign=middle;spacingLeft=4;spacingRight=4;overflow=hidden;points=[[0,0.5],[1,0.5]];portConstraint=eastwest;rotatable=0;whiteSpace=wrap;html=1;" vertex="1" parent="1"><mxGeometry x="430" y="220" width="140" height="30" as="geometry"/></mxCell></root></mxGraphModel></diagram></mxfile>